<svg xmlns="http://www.w3.org/2000/svg" xmlns:xlink="http://www.w3.org/1999/xlink" viewBox="0 0 97.11 88.87"><defs><style>.cls-1{fill:url(#linear-gradient);}.cls-2{fill:url(#linear-gradient-2);}.cls-3{fill:url(#linear-gradient-3);}</style><linearGradient id="linear-gradient" x1="30.73" y1="97.18" x2="30.73" y2="-7.49" gradientUnits="userSpaceOnUse"><stop offset="0" stop-color="#92d2ed"/><stop offset="0.19" stop-color="#90cfea"/><stop offset="0.35" stop-color="#8cc7e0"/><stop offset="0.49" stop-color="#84b8cf"/><stop offset="0.62" stop-color="#78a4b7"/><stop offset="0.75" stop-color="#6a8a98"/><stop offset="0.87" stop-color="#586973"/><stop offset="0.99" stop-color="#434447"/><stop offset="1" stop-color="#414042"/></linearGradient><linearGradient id="linear-gradient-2" x1="64.27" y1="97.18" x2="64.27" y2="-7.49" xlink:href="#linear-gradient"/><linearGradient id="linear-gradient-3" x1="48.56" y1="97.18" x2="48.56" y2="-7.49" xlink:href="#linear-gradient"/></defs><title>HHAsset 1</title><g id="Layer_2" data-name="Layer 2"><g id="Layer_1-2" data-name="Layer 1"><path class="cls-1" d="M40.67,25.56a4.31,4.31,0,0,0-1.32-2.21q-2.21-2.13-4-2.13a6.71,6.71,0,0,0-3.56,1.1,14.66,14.66,0,0,0-3.39,3,26.84,26.84,0,0,0-3,4.38A37.1,37.1,0,0,0,23,35a37.83,37.83,0,0,0-1.61,5.71,23.64,23.64,0,0,0-.46,7.61,5.49,5.49,0,0,0,.46,1.7,2.46,2.46,0,0,0,2.29,1.63,5,5,0,0,0,3-1.07,19.22,19.22,0,0,0,3.1-2.92A37.78,37.78,0,0,0,33,43.27a59.68,59.68,0,0,0,3.1-5.42A53.34,53.34,0,0,0,40.67,25.56Z"/><path class="cls-2" d="M54.34,60a4.31,4.31,0,0,0,1.32,2.21q2.21,2.13,4,2.13a6.72,6.72,0,0,0,3.56-1.1,14.66,14.66,0,0,0,3.39-3,26.87,26.87,0,0,0,3-4.38A37.16,37.16,0,0,0,72,50.64a38,38,0,0,0,1.61-5.71,23.72,23.72,0,0,0,.46-7.61,5.51,5.51,0,0,0-.46-1.7A2.46,2.46,0,0,0,71.34,34a5,5,0,0,0-3,1.07A19.22,19.22,0,0,0,65.26,38,37.67,37.67,0,0,0,62,42.35a59.8,59.8,0,0,0-3.1,5.42A53.4,53.4,0,0,0,54.34,60Z"/><path class="cls-3" d="M94.73,35.54,80.5,10.89a2.28,2.28,0,0,1-1.47.74,11.53,11.53,0,0,0-3.78,1.45,21.65,21.65,0,0,0-3.76,2.77Q64.17,22.63,60.42,37.2q5.89-8.83,13.05-8.83,6.47,0,8.71,6.89A18.79,18.79,0,0,1,83,41.07,25.15,25.15,0,0,1,82,48a31.65,31.65,0,0,1-6.7,12.28,29.79,29.79,0,0,1-4.94,4.51q-5.5,4.07-10.92,4.07a8,8,0,0,1-7.75-5.07,12.39,12.39,0,0,0-.85,1,8.87,8.87,0,0,1-.85,1,2.76,2.76,0,0,1-1.76,1,5.14,5.14,0,0,1-1.59-.27A7.88,7.88,0,0,1,45,65.78q-1.9-1.12-1.43-2.09a80.13,80.13,0,0,0,3.56-9.06l5.73-18.28q6.78-20.8,17.2-26.88a13,13,0,0,1,4.76-1.88,8.59,8.59,0,0,1,2.91,0,6.16,6.16,0,0,1,1,.37A17.79,17.79,0,0,0,63.94,0H33.17A17.79,17.79,0,0,0,17.77,8.89L2.38,35.54a17.79,17.79,0,0,0,0,17.79L14.63,74.55A2.61,2.61,0,0,1,16,74a11.54,11.54,0,0,0,3.78-1.45,21.68,21.68,0,0,0,3.76-2.77Q30.83,63,34.59,48.42q-5.89,8.83-13.05,8.83-6.47,0-8.71-6.89A18.81,18.81,0,0,1,12,44.54a25.15,25.15,0,0,1,1-6.91,31.66,31.66,0,0,1,6.7-12.28,29.78,29.78,0,0,1,4.94-4.51q5.5-4.07,10.92-4.07a8,8,0,0,1,7.75,5.07,12.39,12.39,0,0,0,.85-1,8.87,8.87,0,0,1,.85-1,2.76,2.76,0,0,1,1.76-1,5.14,5.14,0,0,1,1.59.27,7.88,7.88,0,0,1,1.61.74q1.9,1.13,1.43,2.09A80.13,80.13,0,0,0,47.87,31L42.14,49.27q-6.78,20.8-17.2,26.88A13,13,0,0,1,20.18,78a8.59,8.59,0,0,1-2.9,0,6.38,6.38,0,0,1-.77-.26L17.77,80a17.79,17.79,0,0,0,15.41,8.89H63.94A17.79,17.79,0,0,0,79.35,80L94.73,53.33A17.79,17.79,0,0,0,94.73,35.54Z"/></g></g></svg>