<svg xmlns="http://www.w3.org/2000/svg" xmlns:xlink="http://www.w3.org/1999/xlink" viewBox="0 0 506 506"><defs><style>.cls-1{fill:url(#linear-gradient);}.cls-2{fill:#1c3664;}.cls-3{fill:#174171;}.cls-4{fill:none;stroke:#e6e7e8;stroke-miterlimit:10;stroke-dasharray:4.02 4.02;}.cls-5{fill:#ecc194;}.cls-6{fill:#f4cd9d;}.cls-7{fill:#151515;}.cls-8{fill:#bc2226;}.cls-9{fill:#8e191c;}</style><linearGradient id="linear-gradient" x1="253" y1="506" x2="253" gradientUnits="userSpaceOnUse"><stop offset="0" stop-color="#fdda45"/><stop offset="1" stop-color="#fff"/></linearGradient></defs><title>GS-Vector</title><g id="Layer_2_copy" data-name="Layer 2 copy"><circle class="cls-1" cx="253" cy="253" r="253"/></g><g id="Layer_3" data-name="Layer 3"><path class="cls-2" d="M422.58,763a253,253,0,0,0,224,138l2.4,0a294.56,294.56,0,0,0,47.87-4.69A253.37,253.37,0,0,0,873.39,763C633.89,621.12,439.13,751.35,422.58,763Z" transform="translate(-395 -395)"/></g><g id="Layer_4" data-name="Layer 4"><path class="cls-2" d="M537.83,712.17s118.5-52.17,226.5,3.17Z" transform="translate(-395 -395)"/></g><g id="Layer_5" data-name="Layer 5"><ellipse class="cls-3" cx="252.77" cy="341" rx="91.59" ry="56"/><ellipse class="cls-4" cx="252.77" cy="341" rx="87.77" ry="53.67"/></g><g id="Layer_6" data-name="Layer 6"><ellipse class="cls-5" cx="252.73" cy="326.33" rx="60.4" ry="45.33"/></g><g id="Layer_9" data-name="Layer 9"><ellipse class="cls-6" cx="249.13" cy="188" rx="77.88" ry="97"/></g><g id="Layer_11" data-name="Layer 11"><path class="cls-7" d="M572.59,640.85s22.43,72,72.35,82.15V659.41H637.6s8.18,15.64-9.36,16.82c0,0-14.57,1.07-11.26-18.84,0,0,1.54-9.72,8.89-12.56,0,0,17.77-7.23,19.08-12,0,0,1.24-7.23,0-8.83s-6.48-1.36-6.48-1.36-9.64,1.78-13.31,4.86L609,637.38l-31.63-29.5-6.16,19.79Z" transform="translate(-395 -395)"/><path class="cls-7" d="M717.3,640.85s-22.43,72-72.35,82.15V659.41h7.35s-8.18,15.64,9.36,16.82c0,0,14.57,1.07,11.26-18.84,0,0-1.54-9.72-8.89-12.56,0,0-17.77-7.23-19.08-12,0,0-1.24-7.23,0-8.83s6.48-1.36,6.48-1.36,9.64,1.78,13.31,4.86l16.11,9.83,31.63-29.5,6.16,19.79Z" transform="translate(-395 -395)"/><path class="cls-7" d="M644.42,660.29c.08,1.05-.12,2.15-.11,3.21,0,.88.08,1.73.06,2.61a.5.5,0,0,0,1,0c0-.88-.05-1.74-.06-2.61,0-1.06.19-2.16.11-3.21,0-.64-1-.64-1,0Z" transform="translate(-395 -395)"/><path class="cls-7" d="M644.38,666.52a64.05,64.05,0,0,0-.14,8.67c0,.64,1,.64,1,0a64.06,64.06,0,0,1,.14-8.67c.05-.64-1-.64-1,0Z" transform="translate(-395 -395)"/><path class="cls-7" d="M644.46,675.47c.09,3-.29,5.9-.27,8.85a.5.5,0,0,0,1,0c0-3,.37-5.88.27-8.85,0-.64-1-.64-1,0Z" transform="translate(-395 -395)"/><path class="cls-7" d="M644.57,684.35c-.29,2.65-.68,5.46-.09,8.09.14.63,1.11.36,1-.27-.57-2.53-.16-5.27.13-7.82.07-.64-.93-.63-1,0Z" transform="translate(-395 -395)"/><path class="cls-7" d="M644.5,692.6q-.26,3.81-.2,7.63a.5.5,0,0,0,1,0q-.06-3.82.2-7.63c0-.64-1-.64-1,0Z" transform="translate(-395 -395)"/><path class="cls-7" d="M644.48,700.41c-.19,2.55,0,5.13-.16,7.69,0,.64,1,.64,1,0,.18-2.57,0-5.14.16-7.69,0-.64-1-.64-1,0Z" transform="translate(-395 -395)"/><path class="cls-7" d="M644.43,708.11q.06,3.83,0,7.67a.5.5,0,0,0,1,0q0-3.84,0-7.67a.5.5,0,0,0-1,0Z" transform="translate(-395 -395)"/><path class="cls-7" d="M644.29,716.16v5.92a.5.5,0,0,0,1,0v-5.92a.5.5,0,0,0-1,0Z" transform="translate(-395 -395)"/><path class="cls-7" d="M644.42,722a3.2,3.2,0,0,1,0,.49.5.5,0,0,0,1,0,5,5,0,0,0-.07-.76c-.1-.63-1.06-.36-1,.27Z" transform="translate(-395 -395)"/><path class="cls-7" d="M644.45,722.38v.12a.5.5,0,0,0,1,0v-.12a.5.5,0,0,0-1,0Z" transform="translate(-395 -395)"/><path class="cls-7" d="M644.43,722.42l0-.09.23-.3a.52.52,0,0,0-.18.72c.39.5,1.26,0,.86-.5h0l.05.39v0l-.23.3a.52.52,0,0,0,.25-.48.5.5,0,0,0-1,0Z" transform="translate(-395 -395)"/><path class="cls-7" d="M645.46,660v-.06a.5.5,0,0,0-1,0V660a.5.5,0,0,0,1,0Z" transform="translate(-395 -395)"/><path class="cls-7" d="M644.47,659.9h0a.5.5,0,0,0,1,0h0a.5.5,0,0,0-1,0Z" transform="translate(-395 -395)"/></g><g id="Layer_15" data-name="Layer 15"><polygon class="cls-7" points="317.48 212.88 319.83 210.25 324.42 230.08 323.64 232.66 322.63 232.66 317.48 212.88"/></g><g id="Layer_13" data-name="Layer 13"><path class="cls-3" d="M630.5,504.25s19.25-4,30,0l-14.25-31.5Z" transform="translate(-395 -395)"/></g><g id="Layer_12" data-name="Layer 12"><path class="cls-8" d="M571.25,629.46s52.75-127.54,75-145.05c0,0,66.54,100.64,72.39,143.55,0,0,91.86-124.62-12.64-208.86,0,0-12.5-11.36-51.25-16.09,0,0-37.25,11.36-54.5,19.4S467,472.57,571.25,629.46Z" transform="translate(-395 -395)"/></g><g id="Layer_14" data-name="Layer 14"><path class="cls-9" d="M646.12,483.92q5.66-9.27,11.65-18.34c4-6,8.14-12,12.4-17.86s8.49-11.8,13.46-17.15a100.22,100.22,0,0,1,7.81-7.68,44.18,44.18,0,0,1,9-6.32l.16.25a80.84,80.84,0,0,0-7.66,7.57q-3.6,4-7,8.15c-4.56,5.55-9.33,11-13.8,16.63S663.27,460.6,659,466.44s-8.52,11.69-12.63,17.64Z" transform="translate(-395 -395)"/><path class="cls-9" d="M734,598.94c-1.33-6.3-3-12.52-4.86-18.69S725.19,568,722.93,562s-4.67-12-7.32-17.81-5.51-11.58-8.67-17.15a188,188,0,0,0-22.13-31.09c-1-1.23-2.14-2.34-3.2-3.52L680,490.66,678.28,489c-1.15-1.09-2.23-2.27-3.43-3.3s-2.38-2.1-3.57-3.16a127.57,127.57,0,0,0-15.63-11.12.2.2,0,0,1-.08-.27.21.21,0,0,1,.25-.09A82.28,82.28,0,0,1,673,480.31a104.82,104.82,0,0,1,14.77,12.92,116.64,116.64,0,0,1,12.13,15.39l2.65,4.12,2.5,4.2c.86,1.38,1.61,2.83,2.41,4.25s1.58,2.84,2.3,4.3c3,5.75,5.75,11.65,8.24,17.63s4.77,12.05,6.82,18.19,3.83,12.36,5.43,18.62,3,12.56,4.1,18.94a.2.2,0,0,1-.39.07Z" transform="translate(-395 -395)"/><path class="cls-9" d="M747.47,566.68A137.64,137.64,0,0,0,738,533.06a115.86,115.86,0,0,0-17.72-29.78,101.64,101.64,0,0,0-26.23-22.08c-9.82-6-20.75-10-32.09-13h0a.2.2,0,0,1,.07-.39,83.63,83.63,0,0,1,17.46,3.14c1.42.44,2.89.76,4.27,1.33l4.19,1.59c.35.13.7.26,1,.41l1,.48,2,1c1.35.65,2.73,1.25,4,2l3.9,2.24c1.26.81,2.48,1.68,3.72,2.52a44.67,44.67,0,0,1,3.58,2.72c1.15,1,2.36,1.85,3.43,2.9l3.27,3.07,3.08,3.25c1.06,1.05,2,2.24,3,3.36l1.45,1.7,1.36,1.78a118.46,118.46,0,0,1,17.08,31A144.68,144.68,0,0,1,745,549.25a118.39,118.39,0,0,1,2.87,17.4.2.2,0,0,1-.4,0Z" transform="translate(-395 -395)"/><path class="cls-9" d="M754.05,525.77a64,64,0,0,0-1.76-7.23q-1-3.57-2.42-7a83.82,83.82,0,0,0-6.57-13.26,69.81,69.81,0,0,0-19.83-21.38,72.11,72.11,0,0,0-6.2-3.84L714,471.42a15.58,15.58,0,0,0-1.66-.74l-1.68-.69-1.68-.7c-.56-.23-1.15-.39-1.72-.6l-3.43-1.2-3.5-1c-.58-.17-1.16-.37-1.75-.51l-1.78-.41-3.55-.86-3.61-.63c-2.4-.54-4.85-.67-7.29-1.05-1.22-.21-2.45-.22-3.68-.34l-3.7-.32c-2.48-.14-5-.2-7.47-.4h0a.2.2,0,0,1,0-.4q3.71-.61,7.48-1c2.51-.12,5-.36,7.57-.32,1.26,0,2.53,0,3.8.09s2.53.14,3.8.27l3.8.41,3.77.67a73.07,73.07,0,0,1,7.44,1.87,68.41,68.41,0,0,1,7.14,2.84l1.74.83a17.15,17.15,0,0,1,1.71.88L719,470a75.43,75.43,0,0,1,6.32,4.33,72.42,72.42,0,0,1,19.68,23,85.44,85.44,0,0,1,6,13.84,74,74,0,0,1,3.41,14.63.2.2,0,0,1-.4.06Z" transform="translate(-395 -395)"/><path class="cls-9" d="M740.84,468.12A55.09,55.09,0,0,0,726.5,457.5a56.72,56.72,0,0,0-16.67-5.81,50.73,50.73,0,0,0-8.75-.82c-1.46-.08-2.92,0-4.38,0l-2.19.06c-.73,0-1.46,0-2.19.08l-2.2.09-2.2.18c-1.48.06-2.94.3-4.42.43-.75.05-1.48.18-2.22.28l-2.23.29c-1.49.2-3,.47-4.51.61h0a.2.2,0,0,1-.11-.38q2-1.08,4.16-2c1.44-.53,2.87-1.14,4.35-1.55A51.28,51.28,0,0,1,692,447c6.19-.83,12.52.09,18.51,1.57a57.87,57.87,0,0,1,24.35,12.69,45,45,0,0,1,6.3,6.62.2.2,0,0,1-.3.26Z" transform="translate(-395 -395)"/></g></svg>